<?xml version="1.0" encoding="UTF-8"?>
<svg width="166px" height="192px" viewBox="0 0 166 192" version="1.1" xmlns="http://www.w3.org/2000/svg" xmlns:xlink="http://www.w3.org/1999/xlink">
    <title>ilustracion</title>
    <defs>
        <circle id="path-1" cx="82.5" cy="82.5" r="82.5"></circle>
        <path d="M1.0485963,47.0193309 C1.03702559,42.2213517 1.25542289,12.2696745 8.26293888,1.02968354 C8.15301706,0.757120253 8.04743426,0.483114828 7.94763682,0.207667269 C0.186577825,11.8081917 0.295053305,44.0773779 0.329765458,47.4635081 C0.565518834,47.3120841 0.808503909,47.1678707 1.0485963,47.0193309" id="path-3"></path>
        <polyline id="path-5" points="1.41018124 1.70990183 0.934335466 5.04555735 12.1130952 3.93799858 10.175 0.0629850168 1.41018124 1.70990183"></polyline>
    </defs>
    <g id="Symbols" stroke="none" stroke-width="1" fill="none" fill-rule="evenodd">
        <g id="03.Organismo/modal-informativo/modal-1-boton" transform="translate(-173.000000, -64.000000)">
            <g id="ilustracion" transform="translate(173.000000, 64.000000)">
                <g id="Group-Copy-3" transform="translate(0.087719, 27.000000)">
                    <mask id="mask-2" fill="white">
                        <use xlink:href="#path-1"></use>
                    </mask>
                    <use id="Mask" fill="#FACB57" xlink:href="#path-1"></use>
                    <g id="Group" mask="url(#mask-2)">
                        <g transform="translate(34.047619, 39.285714)">
                            <path d="M31.8999966,102.631387 C27.6058139,123.405325 26.946283,145.764167 26.8479319,164.530655 C26.6917272,194.757779 29.1794316,216.848385 29.1794316,216.848385 L35.3784437,216.848385 L48.3217379,130.440053 C48.3217379,130.440053 49.7333655,143.289466 51.6439803,165.080108 C53.1423882,182.179488 53.8496483,196.632553 57.8762582,216.848385 C64.1143214,216.848385 64.095519,216.848385 64.095519,216.848385 C64.095519,216.848385 67.795256,156.67391 67.795256,104.850831 C53.2320613,104.850831 39.3920364,102.631387 31.8999966,102.631387" id="Fill-67" fill="#13374D"></path>
                            <path d="M4.178003,12.8023137 L0.381361211,8.95037424 C0.0515957523,8.60858852 -0.075682144,8.1211473 0.0443640536,7.66110661 L0.33073932,6.57373771 C0.423305063,6.2276256 0.648934061,5.93054603 0.958450763,5.74739503 L5.56070378,3.04772053 C6.10597386,2.72756683 6.79877059,2.82274766 7.23701153,3.27990408 L7.69694756,3.7586925 C7.94137898,4.01250805 8.07733491,4.34996737 8.0759,4.70184802 L8.06287152,11.4063281 L4.178003,12.8023137" id="Fill-68" fill="#F7B58E"></path>
                            <path d="M3.31309184,12.8138507 C3.31309184,12.8138507 10.4261906,39.8740496 14.872239,49.8795741 C19.3182873,59.8850985 34.5670471,76.908046 34.5670471,76.908046 L44.4397621,56.5681907 C44.4397621,56.5681907 30.0949646,47.7682902 23.4302311,39.2294158 C16.7640513,30.6905415 8.61826597,10.4444249 8.61826597,10.4444249 L3.31309184,12.8138507" id="Fill-69" fill="#00666B"></path>
                            <path d="M92.4119582,9.29937062 L95.2916206,4.72636429 C95.5403911,4.32112469 95.5591935,3.81637786 95.3436889,3.39383265 L94.8287919,2.39299178 C94.6639092,2.07428021 94.3804266,1.83200173 94.0376441,1.72095742 L88.9638843,0.0682720693 C88.3636533,-0.129300263 87.7041224,0.112978218 87.3758033,0.652336265 L87.0301281,1.21909485 C86.8464429,1.51905869 86.7856967,1.87815001 86.8609063,2.22137786 L88.3159241,8.76578111 L92.4119582,9.29937062" id="Fill-70" fill="#F7B58E"></path>
                            <path d="M42.8921786,52.8042214 C31.3460485,58.8972368 31.9592965,103.375528 31.9592965,103.375528 L68.4417699,106.323249 L66.1739092,69.8935072 C66.1739092,69.8935072 81.9361196,52.9585298 86.1261658,39.856744 C90.3133193,26.7549583 93.2725304,8.56532451 93.2725304,8.56532451 L87.7301565,8.52350263 C87.7301565,8.52350263 78.2031167,32.0403788 73.210352,38.5919927 C68.2190336,45.1421645 52.8965105,53.6046057 52.8965105,53.6046057 L42.8921786,52.8042214 L83.8095238,36.155058" id="Fill-71" fill="#00666B"></path>
                            <g id="Group-74" stroke-width="1" fill="none" transform="translate(31.266500, 55.687047)">
                                <mask id="mask-4" fill="white">
                                    <use xlink:href="#path-3"></use>
                                </mask>
                                <g id="Clip-73"></g>
                                <path d="M1.0485963,47.0193309 C1.03702559,42.2213517 1.25542289,12.2696745 8.26293888,1.02968354 C8.15301706,0.757120253 8.04743426,0.483114828 7.94763682,0.207667269 C0.186577825,11.8081917 0.295053305,44.0773779 0.329765458,47.4635081 C0.565518834,47.3120841 0.808503909,47.1678707 1.0485963,47.0193309" id="Fill-72" fill="#01888B" mask="url(#mask-4)"></path>
                            </g>
                            <path d="M49.3746732,46.559782 L42.2066135,46.6549628 L40.9584223,53.9146645 C40.9989198,53.9709077 41.0452027,54.0228245 41.0914856,54.0747413 C43.9595773,52.9801618 47.1357393,52.5547323 50.2149966,52.853254 L49.3746732,46.559782 Z" id="Fill-75" fill="#F39F85"></path>
                            <path d="M54.4426476,34.9232043 L51.6280705,44.4182133 C50.6792717,44.1485343 49.8678751,45.039773 49.8346093,45.9829285 C49.6798509,46.1776166 49.5655901,46.4054737 49.5005048,46.6520786 C47.5508388,47.4409258 44.1490478,48.2643842 40.4305083,46.5828562 C34.6104373,43.9524041 41.1334294,33.077273 41.1334294,33.077273 L54.4426476,34.9232043" id="Fill-76" fill="#F7B58E"></path>
                            <g id="Group-81" stroke-width="1" fill="none" transform="translate(39.944538, 49.598827)">
                                <mask id="mask-6" fill="white">
                                    <use xlink:href="#path-5"></use>
                                </mask>
                                <g id="Clip-80"></g>
                                <polyline id="Fill-79" fill="#01888B" mask="url(#mask-6)" points="1.41018124 1.70990183 0.934335466 5.04555735 12.1130952 3.93799858 10.175 0.0629850168 1.41018124 1.70990183"></polyline>
                            </g>
                        </g>
                    </g>
                    <g id="Group" mask="url(#mask-2)">
                        <g transform="translate(55.000000, 132.261905)">
                            <path d="M-7.44378104e-14,33.2701984 L55.1622173,33.2701984 L55.1622173,1 C55.1622173,0.44771525 54.714502,3.82276611e-15 54.1622173,0 L1,0 C0.44771525,1.01453063e-16 -7.45054458e-14,0.44771525 -7.44378104e-14,1 L-7.44378104e-14,33.2701984 L-7.44378104e-14,33.2701984 Z" id="Fill-87" fill="#212B53"></path>
                            <path d="M25.3744792,13.5736508 C25.3744792,14.8022024 26.3627113,15.7966766 27.5804048,15.7966766 C28.799506,15.7966766 29.7877381,14.8022024 29.7877381,13.5736508 C29.7877381,12.3450992 28.799506,11.3492063 27.5804048,11.3492063 C26.3627113,11.3492063 25.3744792,12.3450992 25.3744792,13.5736508" id="Fill-89" fill="#FFFFFF"></path>
                        </g>
                    </g>
                </g>
                <path d="M77.3472337,100.609816 C78.3243002,101.11163 81.6526375,103.603388 83.1361717,104.293054 C85.7288947,105.498361 91.3775738,105.711895 92.7518601,101.38742 C93.4390032,99.2251825 91.9382729,96.6890027 90.7891105,95.708581 C89.6625146,94.747315 88.1841285,94.3025529 86.7060953,94.3414929 C83.236534,94.4329178 79.5471646,94.0562727 78.0008159,93.1938767 C75.4010053,91.7426141 71.118438,93.0459708 70.4054313,95.4256812 C69.6457015,97.9654314 68.7544196,101.078272 69.2266078,103.892091 C69.500161,105.51913 70.0599105,107.08026 70.8780547,108.514563 L72.5663375,105.490866 C73.3261853,104.297482 73.8475697,103.456376 74.1304906,102.967547 C75.4302425,100.721843 76.6804386,100.269451 77.3472337,100.609816 Z" id="Fill-116" fill="#212B53" transform="translate(81.010017, 100.549946) scale(-1, 1) rotate(-41.000000) translate(-81.010017, -100.549946) "></path>
                <path d="M85.8035834,109.377671 C85.320559,110.048748 84.3815822,110.201201 83.7104774,109.716772 C83.0379478,109.232343 82.8869136,108.293405 83.3713629,107.622329 C83.8558122,106.951252 84.7933641,106.798799 85.4658938,107.283228 C86.1384234,107.769082 86.2880327,108.70517 85.8035834,109.377671" id="Fill-78" fill="#F7B58E"></path>
                <g id="Group-5-Copy-3" transform="translate(83.087719, 35.000000) rotate(-180.000000) translate(-83.087719, -35.000000) translate(48.087719, 0.000000)">
                    <circle id="Oval" fill="#4CAF50" cx="35" cy="35" r="35"></circle>
                    <path d="M47.9560697,21.3498336 C49.2305078,20.0931581 51.2823808,20.1075575 52.5390563,21.3819956 C53.7957318,22.6564337 53.7813324,24.7083067 52.5068943,25.9649822 L30.5121984,47.6531253 L15.5486622,32.8981446 C14.2742241,31.641469 14.2598247,29.589596 15.5165002,28.3151579 C16.7731758,27.0407198 18.8250488,27.0263204 20.0994869,28.2829959 L30.5121984,38.5505794 L47.9560697,21.3498336 Z" id="Path-3" fill="#FFFFFF" fill-rule="nonzero" transform="translate(34.027778, 34.034896) rotate(-180.000000) translate(-34.027778, -34.034896) "></path>
                </g>
            </g>
        </g>
    </g>
</svg>